<svg version="1.0" xmlns="http://www.w3.org/2000/svg"
 width="128.000000pt" height="128.000000pt" viewBox="0 0 128.000000 128.000000"
 preserveAspectRatio="xMidYMid meet">

<g transform="translate(0.000000,128.000000) scale(0.100000,-0.100000)"
fill="#000000" stroke="none">
<path d="M110 1126 l0 -93 31 -7 c38 -7 84 -55 92 -94 12 -60 -14 -109 -78
-147 -17 -10 -16 -17 9 -115 35 -136 107 -285 185 -383 60 -76 184 -183 255
-221 l35 -18 72 47 c187 125 323 320 387 556 36 132 36 125 -4 148 -43 26 -67
78 -58 127 8 44 53 92 93 100 l31 7 0 93 c0 72 -3 94 -13 94 -8 0 -58 -7 -113
-15 -255 -38 -585 -39 -804 0 -130 23 -120 30 -120 -79z m215 19 c71 -8 190
-15 263 -15 l133 0 -106 -140 c-58 -77 -108 -147 -111 -155 -5 -12 5 -15 51
-15 46 0 56 -3 51 -15 -3 -8 -49 -90 -102 -182 -53 -93 -99 -172 -101 -178 -3
-5 45 41 107 103 l112 112 49 0 49 0 -87 -132 c-47 -73 -97 -151 -110 -173
-15 -24 63 47 196 180 l221 220 -110 5 -111 5 71 70 71 70 -67 5 -67 5 92 112
c51 62 100 114 109 117 10 2 44 7 77 11 33 4 70 9 83 12 21 5 22 2 22 -44 0
-46 -3 -51 -37 -74 -56 -36 -83 -83 -83 -141 0 -57 10 -80 54 -126 l31 -33
-22 -85 c-39 -148 -116 -294 -213 -398 -58 -64 -198 -168 -213 -159 -92 52
-223 174 -286 266 -49 71 -98 184 -125 286 l-24 91 23 18 c95 75 86 214 -18
281 -34 23 -37 28 -37 73 0 42 2 49 18 44 9 -3 75 -12 147 -21z" fill="currentColor"/>
</g>
</svg>
