<svg version="1.0" xmlns="http://www.w3.org/2000/svg"
 width="100.000000pt" height="100.000000pt" viewBox="0 0 100.000000 100.000000"
 preserveAspectRatio="xMidYMid meet">
<g transform="translate(0.000000,100.000000) scale(0.100000,-0.100000)"
fill="#000000" stroke="none">
<path d="M455 966 c-42 -18 -83 -69 -91 -112 -14 -75 37 -161 155 -263 116
-100 114 -99 164 -65 70 49 192 176 217 227 36 78 18 148 -54 201 -40 30 -130
29 -173 -2 l-33 -23 -31 22 c-38 27 -112 35 -154 15z m152 -70 l33 -36 34 38
c31 33 39 37 85 37 41 0 55 -5 80 -29 43 -41 50 -88 21 -143 -22 -42 -142
-164 -194 -198 -24 -16 -28 -16 -51 -1 -50 33 -167 151 -192 193 -20 34 -24
52 -20 80 17 101 135 135 204 59z" fill='currentColor'/>
<path d="M785 370 l-111 -110 -100 1 -99 1 75 18 c107 26 141 80 85 135 -24
25 -27 25 -195 25 -124 0 -179 -4 -203 -14 -18 -8 -79 -62 -137 -120 l-105
-106 102 -102 103 -103 43 43 43 42 209 0 209 0 148 148 c162 161 171 179 123
227 -45 46 -67 36 -190 -85z m165 55 c6 -8 9 -22 6 -33 -3 -10 -64 -75 -134
-145 l-129 -127 -208 0 -209 0 -38 -37 -38 -37 -78 77 -77 78 92 90 c51 49
104 94 118 99 15 6 97 10 184 10 133 0 161 -3 172 -16 25 -30 -2 -48 -102 -68
-52 -11 -96 -21 -98 -23 -3 -2 11 -19 29 -38 l34 -35 105 0 105 0 111 110 c62
61 119 110 127 110 9 0 21 -7 28 -15z" fill='currentColor'/>
</g>
</svg>
