<svg viewBox="0 0 220 148"><defs id="SvgjsDefs1193"></defs><g id="SvgjsG1194" featurekey="1p4tPl-0" transform="matrix(1.5176003658765531,0,0,1.5176003658765531,99.1198355292267,-18.8030907636846)" fill="#1e56a0"><g xmlns="http://www.w3.org/2000/svg" transform="translate(-50,-942.36218)"><path d="m64.062,964.76a1.2501,1.2501,0,0,0,-0.9375,0.65625c-4.6034,8.5859-16.124,13.263-29.531,12.844a1.2501,1.2501,0,0,0,-1.2812,1.25c0,3.524,0.16081,6.8429,0.4375,9.9688a1.2501,1.2501,0,1,0,2.4688,-0.21875c-0.23605-2.6666-0.31274-5.5543-0.34375-8.5312,12.646,0.0876,23.819-4.1705,29.344-12.5,5.5235,8.3278,16.701,12.586,29.344,12.5-0.18594,17.576-4.0528,29.632-9.625,38.281-5.5286,8.5813-12.72,13.92-19.688,18.188-5.7555-3.5216-11.658-7.735-16.656-13.938a1.2665,1.2665,0,1,0,-1.9688,1.5937c5.4423,6.7529,11.873,11.275,17.938,14.938a1.2501,1.2501,0,0,0,1.3125,0c7.3136-4.4169,15.16-10.099,21.156-19.406,5.9963-9.3074,10.094-22.216,10.094-40.875a1.2501,1.2501,0,0,0,-1.2812,-1.25c-13.407,0.41956-24.928-4.2581-29.531-12.844a1.2501,1.2501,0,0,0,-1.25,-0.65625zm0,9.375a1.2501,1.2501,0,0,0,-0.9375,0.65625c-3.3282,6.2208-11.716,9.6838-21.562,9.375a1.2501,1.2501,0,0,0,-1.2812,1.25c0,2.6383,0.14172,4.3065,0.34375,6.5938a1.2548,1.2548,0,1,0,2.5,-0.21875c-0.16591-1.8783-0.24036-3.391-0.28125-5.2188,9.0722-0.0257,17.176-2.9931,21.375-8.9375,4.2044,5.9515,12.321,8.9189,21.406,8.9375-0.17453,12.847-3.0007,21.651-7.0625,27.969-4.0264,6.2631-9.2729,10.138-14.375,13.281-4.1272-2.4969-7.5954-4.6271-11.188-9.0938a1.2567,1.2567,0,1,0,-1.9688,1.5625c4.0648,5.0546,8.0908,7.4375,12.531,10.125a1.2501,1.2501,0,0,0,1.3125,0c5.4335-3.2885,11.304-7.5665,15.781-14.531,4.4774-6.9647,7.5312-16.575,7.5312-30.469a1.2501,1.2501,0,0,0,-1.3125,-1.25c-9.847,0.30881-18.234-3.1544-21.562-9.375a1.2501,1.2501,0,0,0,-1.25,-0.65625zm-31.75,18.625c-0.83994,0-1.6792,0.14798-2.4375,0.40625-0.009,0.003-0.0218-0.003-0.0312,0l-24.25,8.2813a1.2501,1.2501,0,0,0,-0.0312,0c-0.3826,0.1323-0.7128,0.2918-1.0312,0.5625-0.31845,0.2707-0.65625,0.7538-0.65625,1.3437,0,0.59,0.3378,1.0419,0.65625,1.3125,0.31845,0.2707,0.64865,0.4303,1.0312,0.5625a1.2501,1.2501,0,0,0,0.0312,0l2.5938,0.875v12.375h-1.0625v8.75l2.3125-1.6562,2.2812,1.6562v-8.75h-1.0312v-11.5l5.6875,1.9375v10.688a1.2501,1.2501,0,0,0,0.75,1.1563c3.5498,1.6082,8.9547,2.5656,14.594,2.6875,5.639,0.1219,11.458-0.6123,15.812-2.7188a1.2501,1.2501,0,0,0,0.71875,-1.125v-10.688l10.812-3.6875c0.3826-0.1322,0.74405-0.2918,1.0625-0.5625,0.31845-0.2706,0.65625-0.7225,0.65625-1.3125,0-0.5899-0.3378-1.073-0.65625-1.3437s-0.6799-0.4302-1.0625-0.5625l-24.281-8.2813c-0.76572-0.26476-1.6183-0.40625-2.4688-0.40625zm0,2.5938c0.63392,0,1.2835,0.0586,1.6562,0.1875l22.906,7.8125-10.281,3.5a1.2501,1.2501,0,0,0,-0.21875,0.094l-12.406,4.2187c-0.74558,0.2578-2.5357,0.2578-3.2812,0a1.2501,1.2501,0,0,0,-0.0312,0l-12.469-4.25a1.2501,1.2501,0,0,0,-0.21875,-0.094l-0.125-0.031a1.2501,1.2501,0,0,0,-0.125,-0.031l-9.968-3.5,22.906-7.86a1.2501,1.2501,0,0,0,0.0312,0c0.37279-0.1289,0.99108-0.1875,1.625-0.1875zm-13.438,14.437,10.969,3.75,0.0312,0c1.5261,0.5198,3.3843,0.5263,4.9062,0l10.969-3.75v8.9375c-3.7264,1.6056-8.9177,2.3287-14,2.2188-5.0486-0.1091-9.809-1.0172-12.875-2.25v-8.9063z" style="direction:ltr;baseline-shift:baseline;block-progression:tb;text-indent:0;color:;enable-background:accumulate;text-transform:none;" fill="#1e56a0"></path></g></g><g id="SvgjsG1195" featurekey="dYASrj-0" transform="matrix(3.614348384478011,0,0,3.614348384478011,-7.588686145181694,115.92825807760994)" fill="#163172"></g></svg>
