<svg width="134" height="30" viewBox="0 0 134 30" fill="none" xmlns="http://www.w3.org/2000/svg">
<path d="M76.6698 19.0811C76.6698 12.5252 72.8053 8.38464 66.1459 8.38464C59.9005 8.38464 55.4839 12.2492 55.4839 18.6671C55.4839 25.292 60.2455 28.915 66.6289 28.915C71.011 28.915 75.3241 26.8447 76.4283 22.3246H69.8724C69.1133 23.6013 68.0781 24.0843 66.5944 24.0843C63.7995 24.0843 62.3158 22.6006 62.3158 19.8057H76.6698V19.0811V19.0811ZM62.4193 15.8722C62.8334 13.8709 64.4896 12.8358 66.4564 12.8358C68.2852 12.8358 69.9759 14.0434 70.3209 15.8722H62.4193Z" fill="currentColor"/>
<path d="M27.9834 0L25.085 6.21086H29.9501L33.0901 0H27.9834Z" fill="currentColor"/>
<path d="M133.602 9.04024H126.77V10.9035C125.356 9.21276 123.009 8.38464 120.801 8.38464C115.108 8.38464 111.174 13.1118 111.174 18.6326C111.174 24.1533 115.177 28.915 120.87 28.915C123.113 28.915 125.494 28.0524 126.667 26.1546H126.736V28.2939H133.568V9.04024H133.602ZM122.63 14.3195C125.39 14.3195 127.012 16.3207 127.012 18.6671C127.012 21.1169 125.39 22.9802 122.63 22.9802C119.87 22.9802 118.248 21.1169 118.248 18.6671C118.248 16.3207 119.87 14.3195 122.63 14.3195Z" fill="currentColor"/>
<path d="M102.548 9.0402H95.7163V28.2594H102.548V20.4958C102.548 17.1833 103.48 14.699 107.275 14.699C108.311 14.699 109.242 14.8025 110.174 15.3201V8.76416H108.863C106.206 8.76416 103.963 9.7993 102.652 12.1801H102.583V9.0402H102.548Z" fill="currentColor"/>
<path d="M85.6752 9.0402H78.8433V28.2594H85.6752V20.4958C85.6752 17.1833 86.6068 14.699 90.4024 14.699C91.4375 14.699 92.3691 14.8025 93.3008 15.3201V8.76416H91.9896C89.3327 8.76416 87.0899 9.7993 85.7787 12.1801H85.7097V9.0402H85.6752Z" fill="currentColor"/>
<path d="M52.0677 6.21086H60.8664V0H35.9194V6.21086H44.7182V28.2594H52.0677V6.21086Z" fill="currentColor"/>
<path d="M7.34952 6.21086H9.07476C13.8019 6.21086 17.1489 9.07476 17.1489 14.147C17.1489 19.6677 13.3879 22.0486 9.00575 22.0486H7.34952V6.21086ZM0 28.2594H10.4204C18.253 28.2594 24.7744 22.0831 24.7744 14.1125C24.7744 6.14185 18.2875 0 10.4204 0H0V28.2594Z" fill="currentColor"/>
</svg>
