<svg width="450" height="150" viewBox="0 0 350 150" class="looka-1j8o68f"><defs id="SvgjsDefs1193"></defs><g id="SvgjsG1194" featurekey="1p4tPl-0" transform="matrix(1.5176003658765531,0,0,1.5176003658765531,99.1198355292267,-18.8030907636846)" fill="#1e56a0"><g xmlns="http://www.w3.org/2000/svg" transform="translate(0,-952.36218)"><path d="m64.062,964.76a1.2501,1.2501,0,0,0,-0.9375,0.65625c-4.6034,8.5859-16.124,13.263-29.531,12.844a1.2501,1.2501,0,0,0,-1.2812,1.25c0,3.524,0.16081,6.8429,0.4375,9.9688a1.2501,1.2501,0,1,0,2.4688,-0.21875c-0.23605-2.6666-0.31274-5.5543-0.34375-8.5312,12.646,0.0876,23.819-4.1705,29.344-12.5,5.5235,8.3278,16.701,12.586,29.344,12.5-0.18594,17.576-4.0528,29.632-9.625,38.281-5.5286,8.5813-12.72,13.92-19.688,18.188-5.7555-3.5216-11.658-7.735-16.656-13.938a1.2665,1.2665,0,1,0,-1.9688,1.5937c5.4423,6.7529,11.873,11.275,17.938,14.938a1.2501,1.2501,0,0,0,1.3125,0c7.3136-4.4169,15.16-10.099,21.156-19.406,5.9963-9.3074,10.094-22.216,10.094-40.875a1.2501,1.2501,0,0,0,-1.2812,-1.25c-13.407,0.41956-24.928-4.2581-29.531-12.844a1.2501,1.2501,0,0,0,-1.25,-0.65625zm0,9.375a1.2501,1.2501,0,0,0,-0.9375,0.65625c-3.3282,6.2208-11.716,9.6838-21.562,9.375a1.2501,1.2501,0,0,0,-1.2812,1.25c0,2.6383,0.14172,4.3065,0.34375,6.5938a1.2548,1.2548,0,1,0,2.5,-0.21875c-0.16591-1.8783-0.24036-3.391-0.28125-5.2188,9.0722-0.0257,17.176-2.9931,21.375-8.9375,4.2044,5.9515,12.321,8.9189,21.406,8.9375-0.17453,12.847-3.0007,21.651-7.0625,27.969-4.0264,6.2631-9.2729,10.138-14.375,13.281-4.1272-2.4969-7.5954-4.6271-11.188-9.0938a1.2567,1.2567,0,1,0,-1.9688,1.5625c4.0648,5.0546,8.0908,7.4375,12.531,10.125a1.2501,1.2501,0,0,0,1.3125,0c5.4335-3.2885,11.304-7.5665,15.781-14.531,4.4774-6.9647,7.5312-16.575,7.5312-30.469a1.2501,1.2501,0,0,0,-1.3125,-1.25c-9.847,0.30881-18.234-3.1544-21.562-9.375a1.2501,1.2501,0,0,0,-1.25,-0.65625zm-31.75,18.625c-0.83994,0-1.6792,0.14798-2.4375,0.40625-0.009,0.003-0.0218-0.003-0.0312,0l-24.25,8.2813a1.2501,1.2501,0,0,0,-0.0312,0c-0.3826,0.1323-0.7128,0.2918-1.0312,0.5625-0.31845,0.2707-0.65625,0.7538-0.65625,1.3437,0,0.59,0.3378,1.0419,0.65625,1.3125,0.31845,0.2707,0.64865,0.4303,1.0312,0.5625a1.2501,1.2501,0,0,0,0.0312,0l2.5938,0.875v12.375h-1.0625v8.75l2.3125-1.6562,2.2812,1.6562v-8.75h-1.0312v-11.5l5.6875,1.9375v10.688a1.2501,1.2501,0,0,0,0.75,1.1563c3.5498,1.6082,8.9547,2.5656,14.594,2.6875,5.639,0.1219,11.458-0.6123,15.812-2.7188a1.2501,1.2501,0,0,0,0.71875,-1.125v-10.688l10.812-3.6875c0.3826-0.1322,0.74405-0.2918,1.0625-0.5625,0.31845-0.2706,0.65625-0.7225,0.65625-1.3125,0-0.5899-0.3378-1.073-0.65625-1.3437s-0.6799-0.4302-1.0625-0.5625l-24.281-8.2813c-0.76572-0.26476-1.6183-0.40625-2.4688-0.40625zm0,2.5938c0.63392,0,1.2835,0.0586,1.6562,0.1875l22.906,7.8125-10.281,3.5a1.2501,1.2501,0,0,0,-0.21875,0.094l-12.406,4.2187c-0.74558,0.2578-2.5357,0.2578-3.2812,0a1.2501,1.2501,0,0,0,-0.0312,0l-12.469-4.25a1.2501,1.2501,0,0,0,-0.21875,-0.094l-0.125-0.031a1.2501,1.2501,0,0,0,-0.125,-0.031l-9.968-3.5,22.906-7.86a1.2501,1.2501,0,0,0,0.0312,0c0.37279-0.1289,0.99108-0.1875,1.625-0.1875zm-13.438,14.437,10.969,3.75,0.0312,0c1.5261,0.5198,3.3843,0.5263,4.9062,0l10.969-3.75v8.9375c-3.7264,1.6056-8.9177,2.3287-14,2.2188-5.0486-0.1091-9.809-1.0172-12.875-2.25v-8.9063z" transform="translate(-100, 10)" style="direction:ltr;baseline-shift:baseline;block-progression:tb;text-indent:0;color:;enable-background:accumulate;text-transform:none;" fill="currentColor"></path></g></g><g id="SvgjsG1195" featurekey="dYASrj-0" transform="matrix(3.614348384478011,0,0,3.614348384478011,-7.588686145181694,115.92825807760994)" fill="currentColor"><path d="M2.0996 20 l0 -13.809 l1.9434 0 l0 13.809 l-1.9434 0 z M12.59764375 10.1367 c2.041 0 3.3887 1.1816 3.3887 3.3496 l0 6.5137 l-1.8848 0 l0 -6.0938 c0 -1.5918 -0.94727 -2.207 -2.041 -2.207 c-1.2891 0 -2.3438 0.78125 -2.3535 2.5879 l0 5.7129 l-1.875 0 l0 -9.668 l1.875 0 l0 1.1914 c0.625 -0.87891 1.6406 -1.3867 2.8906 -1.3867 z M22.27536875 20.18555 c-2.0703 0 -3.623 -0.91797 -3.9258 -2.6855 l1.6113 -0.45898 c0.23438 1.1523 1.1133 1.7578 2.3047 1.7578 c0.89844 0 1.8652 -0.3418 1.8359 -1.4063 c-0.029297 -1.1426 -1.3379 -1.3281 -2.8906 -1.8066 c-1.3184 -0.40039 -2.5977 -0.94727 -2.5977 -2.666 c0 -1.9141 1.5723 -2.7637 3.4766 -2.7637 c1.7773 0 3.2715 0.75195 3.584 2.5293 l-1.5137 0.37109 c-0.23438 -1.1035 -1.0938 -1.5625 -2.0605 -1.5625 c-0.85938 0 -1.748 0.35156 -1.748 1.2891 c0 1.0156 1.1426 1.25 2.3828 1.5723 c1.5137 0.38086 3.1836 0.91797 3.1836 2.959 c0 2.0801 -1.7285 2.8711 -3.6426 2.8711 z M34.550809375 10.332 l1.875 0 l0 9.668 l-1.7871 0 l-0.048828 -1.25 c-0.61523 0.9082 -1.6504 1.4355 -2.9297 1.4355 c-2.041 0 -3.3887 -1.1816 -3.3887 -3.3496 l0 -6.5039 l1.8848 0 l0 6.0938 c0 1.5723 0.94727 2.1973 2.0508 2.1973 c1.2891 0 2.334 -0.77148 2.3438 -2.5879 l0 -5.7031 z M41.60156875 12.011700000000001 c0.46875 -1.0254 1.6895 -1.7773 3.0762 -1.7871 l0 1.7383 c-1.9141 0 -3.0176 0.80078 -3.0176 2.9492 l0 5.0879 l-1.875 0 l0 -9.668 l1.8164 0 l0 1.6797 z M55.19540625 14.9805 l-0.029297 0.49805 l-7.4902 0 c0.068359 2.1387 1.416 3.1738 3.0176 3.1738 c1.1523 0 2.1094 -0.625 2.5977 -1.6699 l1.6992 0.33203 c-0.68359 1.7969 -2.3145 2.8711 -4.2773 2.8711 c-2.8711 0 -4.873 -1.8555 -4.873 -5.0195 s2.0508 -5.0293 4.8145 -5.0293 c2.627 0 4.5313 1.582 4.541 4.8438 z M50.66410625 11.5625 c-1.4941 0 -2.6172 0.80078 -2.9102 2.4902 l5.5566 0 c-0.15625 -1.6797 -1.2207 -2.4902 -2.6465 -2.4902 z M65.76171875 7.939 l-5.6055 0 l0 4.2871 l4.873 0 l0 1.748 l-4.873 0 l0 6.0254 l-1.9824 0 l0 -13.809 l7.5879 0 l0 1.748 z M68.2031375 20 l0 -15 l1.8848 0 l0 15 l-1.8848 0 z M77.597678125 20.18555 c-2.8223 0 -4.9512 -1.9238 -4.9512 -5.0293 c0 -3.0957 2.1094 -5.0195 4.9512 -5.0195 s4.9414 1.9238 4.9414 5.0195 c0 3.1055 -2.1094 5.0293 -4.9414 5.0293 z M77.578078125 18.6426 c1.7676 0 3.1055 -1.3672 3.1055 -3.4863 c0 -2.1094 -1.3379 -3.4766 -3.1055 -3.4766 c-1.748 0 -3.0664 1.3672 -3.0664 3.4766 c0 2.1191 1.3184 3.4863 3.0664 3.4863 z M96.97296875 10.332 l1.9629 0 l-3.3398 9.6777 l-1.709 0 l-2.5586 -7.2656 l-2.5684 7.2656 l-1.7188 0 l-3.2813 -9.6777 l1.9434 0 l2.3242 7.2266 l2.5684 -7.2266 l1.4453 0 l2.5684 7.2168 z" transform="translate(30, -23) scale(0.8)"></path></g></svg>